<svg id="Layer_1" data-name="Layer 1" xmlns="http://www.w3.org/2000/svg" viewBox="0 0 500 500"><defs><style>.cls-1,.cls-4{fill:#fff;}.cls-1,.cls-2{stroke:#231f20;stroke-miterlimit:10;}.cls-2,.cls-3{fill:#272727;}.cls-5{fill:#282828;}</style></defs><title>Watches Calculator</title><path class="cls-1" d="M250,269.5H453.5A203.49,203.49,0,0,1,250,473Z"/><path class="cls-2" d="M250,269.5H46.5A203.49,203.49,0,0,0,250,473Z"/><path class="cls-2" d="M250,269.5H453.5A203.49,203.49,0,0,0,250,66Z"/><path class="cls-1" d="M250,269.5H46.5A203.49,203.49,0,0,1,250,66Z"/><rect class="cls-3" x="122" y="168.62" width="90" height="20.77"/><rect class="cls-3" x="122" y="169.31" width="90" height="20.77" transform="translate(-12.69 346.69) rotate(-90)"/><rect class="cls-3" x="305.93" y="360.87" width="90" height="20.77"/><rect class="cls-4" x="300.1" y="168.86" width="90" height="20.77" transform="translate(462.37 550.01) rotate(-135)"/><rect class="cls-4" x="300.59" y="168.37" width="90" height="20.77" transform="translate(716.35 60.79) rotate(135)"/><rect class="cls-4" x="122" y="360.87" width="90" height="20.77"/><circle class="cls-4" cx="167" cy="338" r="13"/><circle class="cls-4" cx="167" cy="404.5" r="13"/><path class="cls-3" d="M246.89,89H244.5V74.56l-2.43,1.49V73.58L244.5,72h2.39Z"/><path class="cls-4" d="M252.1,86.93,258,79a5.9,5.9,0,0,0,.81-1.41,3.76,3.76,0,0,0,.28-1.36v0a2.1,2.1,0,0,0-.59-1.58,2.42,2.42,0,0,0-1.7-.56,2.34,2.34,0,0,0-1.69.61,2.83,2.83,0,0,0-.79,1.74v0h-2.47v0a6.43,6.43,0,0,1,.86-2.5,4.45,4.45,0,0,1,1.68-1.58,5.06,5.06,0,0,1,2.38-.54,5.85,5.85,0,0,1,2.6.52,3.59,3.59,0,0,1,1.64,1.51,4.8,4.8,0,0,1,.57,2.41h0a5.35,5.35,0,0,1-.38,1.89,8.38,8.38,0,0,1-1,1.89l-4.93,6.71h6.44V89H252.1Z"/><polyline class="cls-4" points="250 148 262.5 266 250 278.5"/><polyline class="cls-3" points="250 148 237.5 266 250 278.5"/><polyline class="cls-4" points="417.33 269.5 253.5 263.25 241 269.5"/><polyline class="cls-3" points="417.33 269.5 253.5 275.75 241 269.5"/><polygon class="cls-4" points="239.89 277.44 74.9 332.01 238.51 273.43 241.21 274.75 239.89 277.44"/><circle class="cls-5" cx="250" cy="269.5" r="13"/></svg>